<svg width="69" height="83" viewBox="0 0 69 83" fill="none" xmlns="http://www.w3.org/2000/svg">
<path fill-rule="evenodd" clip-rule="evenodd" d="M46 35.8409C46 32.7152 48.5741 30.1818 51.75 30.1818C54.9259 30.1818 57.5 32.7152 57.5 35.8409C57.5 38.9666 54.9259 41.5 51.75 41.5C48.5741 41.5 46 38.9666 46 35.8409ZM19.1667 35.8409C19.1667 32.7152 21.7407 30.1818 24.9167 30.1818C28.0926 30.1818 30.6667 32.7152 30.6667 35.8409C30.6667 38.9666 28.0926 41.5 24.9167 41.5C21.7407 41.5 19.1667 38.9666 19.1667 35.8409ZM7.66667 33.9545C7.66667 19.3692 19.6803 7.54545 34.5 7.54545C49.3197 7.54545 61.3333 19.3692 61.3333 33.9545V72.7872C61.3333 73.4946 61.0477 74.1718 60.5398 74.6736C60.03 75.1735 59.3419 75.4545 58.6231 75.4545H58.4583C57.6342 75.4545 56.8426 75.132 56.2618 74.5585L51.3054 69.6804C50.1515 68.5467 48.5894 67.9091 46.9583 67.9091C45.3272 67.9091 43.7651 68.5467 42.6113 69.6804L38.3333 73.8927C37.3175 74.8924 35.9375 75.4545 34.5 75.4545C33.0625 75.4545 31.6825 74.8924 30.6667 73.8927L26.3887 69.6804C25.2348 68.5467 23.6727 67.9091 22.0417 67.9091C20.4106 67.9091 18.8485 68.5467 17.6947 69.6804L12.7382 74.5585C12.1574 75.132 11.3658 75.4545 10.5417 75.4545H10.3768C9.65806 75.4545 8.96998 75.1735 8.46015 74.6736C7.95223 74.1718 7.66667 73.4946 7.66667 72.7872V33.9545ZM34.5 4.76837e-07C15.4464 4.76837e-07 0 15.2022 0 33.9545V72.7872C0 75.4941 1.09252 78.0917 3.03985 80.0083C4.98719 81.9248 7.6264 83 10.3768 83H10.5417C13.3994 83 16.1402 81.8833 18.1604 79.8951L22.0417 76.0732L25.2463 79.2273C27.6997 81.6418 31.0289 83 34.5 83C37.9711 83 41.3003 81.6418 43.7536 79.2273L46.9583 76.0732L50.8396 79.8951C52.8597 81.8833 55.6006 83 58.4583 83H58.6231C61.3736 83 64.0129 81.9248 65.9602 80.0083C67.9075 78.0917 69 75.4941 69 72.7872V33.9545C69 15.2022 53.5536 4.76837e-07 34.5 4.76837e-07Z" fill="#6E8298"/>
</svg>
