<svg width="314" height="164" viewBox="0 0 314 164" fill="none" xmlns="http://www.w3.org/2000/svg">
<path d="M248.983 81.836C248.983 84.788 249.475 87.74 250.459 90.692C251.553 93.5347 253.138 96.104 255.215 98.4C257.293 100.696 259.862 102.555 262.923 103.976C266.094 105.397 269.757 106.108 273.911 106.108C277.301 106.108 280.253 105.452 282.767 104.14C285.282 102.719 287.359 100.915 288.999 98.728C290.749 96.432 292.061 93.8627 292.935 91.02C293.81 88.068 294.247 85.116 294.247 82.164C294.357 78.1187 293.81 74.62 292.607 71.668C291.405 68.716 289.765 66.256 287.687 64.288C285.719 62.32 283.423 60.844 280.799 59.86C278.175 58.7667 275.442 58.22 272.599 58.22C269.647 58.22 266.75 58.712 263.907 59.696C261.174 60.68 258.659 62.156 256.363 64.124C254.177 66.092 252.373 68.552 250.951 71.504C249.639 74.456 248.983 77.9 248.983 81.836ZM313.107 78.392V123.164H293.427V118.572C290.257 120.649 286.758 122.125 282.931 123C279.214 123.765 275.497 124.148 271.779 124.148C264.673 124.148 258.441 122.945 253.083 120.54C247.726 118.135 243.298 114.964 239.799 111.028C236.301 107.092 233.677 102.609 231.927 97.58C230.178 92.5507 229.303 87.3573 229.303 82C229.303 75.112 230.561 69.044 233.075 63.796C235.699 58.4387 239.034 54.0107 243.079 50.512C247.234 47.0133 251.935 44.3893 257.183 42.64C262.431 40.7813 267.734 39.852 273.091 39.852C278.23 39.852 283.15 40.6173 287.851 42.148C292.662 43.5693 296.926 45.8653 300.643 49.036C304.47 52.0973 307.477 56.088 309.663 61.008C311.959 65.8187 313.107 71.6133 313.107 78.392Z" fill="white"/>
<path d="M202.881 123.328V41H222.561V121.032C222.561 127.264 221.632 133.004 219.773 138.252C218.024 143.609 215.291 148.147 211.573 151.864C207.965 155.691 203.483 158.643 198.125 160.72C192.659 162.907 186.317 164 179.101 164H170.245V145.96H181.397C185.005 145.96 188.176 145.304 190.909 143.992C193.533 142.789 195.775 141.095 197.633 138.908C199.383 136.831 200.695 134.425 201.569 131.692C202.444 128.959 202.881 126.171 202.881 123.328Z" fill="white"/>
<path d="M176.296 -1.52588e-05H195.976V123.164H176.296V-1.52588e-05Z" fill="white"/>
<path d="M126.06 57.4C120.812 57.4 116.384 58.6027 112.776 61.008C109.278 63.4133 106.599 66.42 104.74 70.028C102.991 73.636 102.116 77.572 102.116 81.836C102.226 86.1 103.155 90.036 104.904 93.644C106.654 97.252 109.278 100.259 112.776 102.664C116.384 105.069 120.812 106.272 126.06 106.272C131.308 106.272 135.682 105.069 139.18 102.664C142.788 100.259 145.467 97.252 147.216 93.644C148.966 90.036 149.84 86.1 149.84 81.836C149.84 77.572 148.966 73.636 147.216 70.028C145.467 66.42 142.788 63.4133 139.18 61.008C135.682 58.6027 131.308 57.4 126.06 57.4ZM126.06 124.312C118.516 124.312 112.011 123.109 106.544 120.704C101.078 118.299 96.5403 115.128 92.9323 111.192C89.4337 107.147 86.8097 102.609 85.0603 97.58C83.4203 92.4413 82.6003 87.1933 82.6003 81.836C82.6003 76.4787 83.4203 71.2853 85.0603 66.256C86.8097 61.1173 89.4337 56.58 92.9323 52.644C96.5403 48.5987 101.078 45.3733 106.544 42.968C112.011 40.5627 118.516 39.36 126.06 39.36C133.604 39.36 140.11 40.5627 145.576 42.968C151.043 45.3733 155.526 48.5987 159.024 52.644C162.632 56.58 165.256 61.1173 166.896 66.256C168.646 71.2853 169.52 76.4787 169.52 81.836C169.52 87.1933 168.646 92.4413 166.896 97.58C165.256 102.609 162.632 107.147 159.024 111.192C155.526 115.128 151.043 118.299 145.576 120.704C140.11 123.109 133.604 124.312 126.06 124.312Z" fill="white"/>
<path d="M38.164 39.852C50.3 39.852 59.648 43.296 66.208 50.184C72.768 56.9627 76.048 66.4747 76.048 78.72V123H56.368V75.932C56.368 70.4653 54.6734 66.092 51.284 62.812C47.8947 59.532 43.5214 57.892 38.164 57.892C32.8067 57.892 28.4334 59.532 25.044 62.812C21.6547 66.092 19.96 70.4653 19.96 75.932V123H0.280029V78.72C0.280029 66.4747 3.56003 56.9627 10.12 50.184C16.68 43.296 26.028 39.852 38.164 39.852Z" fill="white"/>
</svg>
